<svg width="348.760009765625px" height="124.439990234375px" xmlns="http://www.w3.org/2000/svg" viewBox="75.6199951171875 12.780004882812499 348.760009765625 124.439990234375" style="background: none;" preserveAspectRatio="xMidYMid"><defs><filter id="editing-extrusion" x="-100%" y="-100%" width="300%" height="300%"><feFlood result="color1" flood-color="#444"></feFlood><feConvolveMatrix order="8,8" divisor="1" kernelMatrix="1 0 0 0 0 0 0 0 0 1 0 0 0 0 0 0 0 0 1 0 0 0 0 0 0 0 0 1 0 0 0 0 0 0 0 0 1 0 0 0 0 0 0 0 0 1 0 0 0 0 0 0 0 0 1 0 0 0 0 0 0 0 0 1" in="SourceAlpha" result="extrude"></feConvolveMatrix><feComposite in="color1" in2="extrude" result="comp-extrude" operator="in"></feComposite><feOffset dx="4" dy="4" in="comp-extrude" result="offset-extrude"></feOffset><feMerge><feMergeNode in="offset-extrude"></feMergeNode><feMergeNode in="SourceGraphic"></feMergeNode></feMerge></filter></defs><g filter="url(#editing-extrusion)"><g transform="translate(133.29411125183105, 97.8799991607666)"><path d="M29.18 1.28L29.18 1.28L29.18 1.28Q20.99 1.28 20.22-10.37L20.22-10.37L9.22-10.37L9.22-10.37Q7.94-7.42 7.04-4.86L7.04-4.86L5.38 0L-3.58 0L16.58-42.24L30.34-42.24L33.02-11.14L33.02-11.14Q33.66-4.42 36.22-2.43L36.22-2.43L36.22-2.43Q34.37 1.28 29.18 1.28ZM14.72-23.17L11.20-15.04L20.03-15.04L19.26-31.49L19.26-33.22L14.72-23.17ZM53.06 0L39.36 0L47.17-42.05L47.17-42.05Q53.50-42.75 62.75-42.75L62.75-42.75L62.75-42.75Q72-42.75 76.29-40.06L76.29-40.06L76.29-40.06Q80.58-37.38 80.58-31.97L80.58-31.97L80.58-31.97Q80.58-26.56 77.79-23.17L77.79-23.17L77.79-23.17Q75.01-19.78 70.21-18.69L70.21-18.69L70.21-18.69Q71.30-13.38 73.79-9.09L73.79-9.09L73.79-9.09Q76.10-5.06 78.78-3.78L78.78-3.78L78.78-3.78Q77.82-1.09 75.87 0.10L75.87 0.10L75.87 0.10Q73.92 1.28 71.14 1.28L71.14 1.28L71.14 1.28Q68.35 1.28 66.18-0.35L66.18-0.35L66.18-0.35Q64-1.98 62.27-4.99L62.27-4.99L62.27-4.99Q58.62-11.52 58.24-21.82L58.24-21.82L58.69-21.82L58.69-21.82Q63.42-21.95 65.79-24.42L65.79-24.42L65.79-24.42Q68.16-26.88 68.16-32.06L68.16-32.06L68.16-32.06Q68.16-38.53 62.72-38.78L62.72-38.78L61.31-38.78L61.31-38.78Q60.74-38.78 60.42-38.72L60.42-38.72L53.06 0ZM110.85-9.86L110.85-9.86L110.85-9.86Q112.06-8.32 112.06-5.82L112.06-5.82L112.06-5.82Q112.06-2.37 109.50-0.54L109.50-0.54L109.50-0.54Q106.94 1.28 102.91 1.28L102.91 1.28L102.91 1.28Q100.61 1.28 97.09 0.77L97.09 0.77L97.09 0.77Q90.18-0.32 88.06-0.32L88.06-0.32L88.06-0.32Q85.95-0.32 85.12-0.22L85.12-0.22L85.12-0.22Q84.29-0.13 82.94 0L82.94 0L90.82-42.24L118.40-42.24L118.40-42.24Q118.40-38.34 116.51-36.29L116.51-36.29L116.51-36.29Q114.62-34.24 110.91-34.24L110.91-34.24L110.91-34.24Q107.20-34.24 103.42-35.97L103.42-35.97L101.44-24.77L112.83-24.77L112.83-24.77Q112.83-21.38 111.17-19.49L111.17-19.49L111.17-19.49Q109.50-17.60 106.72-17.60L106.72-17.60L106.72-17.60Q103.94-17.60 102.21-18.24L102.21-18.24L102.21-18.24Q100.48-18.88 100.29-19.07L100.29-19.07L97.98-6.98L97.98-6.98Q99.52-6.78 102.40-6.78L102.40-6.78L102.40-6.78Q107.33-6.78 110.85-9.86ZM146.05 1.28L146.05 1.28L146.05 1.28Q137.86 1.28 137.09-10.37L137.09-10.37L126.08-10.37L126.08-10.37Q124.80-7.42 123.90-4.86L123.90-4.86L122.24 0L113.28 0L133.44-42.24L147.20-42.24L149.89-11.14L149.89-11.14Q150.53-4.42 153.09-2.43L153.09-2.43L153.09-2.43Q151.23 1.28 146.05 1.28ZM131.58-23.17L128.06-15.04L136.90-15.04L136.13-31.49L136.13-33.22L131.58-23.17ZM182.08-32.32L180.29-26.30L180.29-26.30Q184-26.62 186.30-26.62L186.30-26.62L186.30-26.62Q188.61-26.62 191.04-25.79L191.04-25.79L191.04-25.79Q193.47-24.96 195.26-23.55L195.26-23.55L195.26-23.55Q199.23-20.42 199.23-16.42L199.23-16.42L199.23-16.42Q199.23-12.42 197.79-9.22L197.79-9.22L197.79-9.22Q196.35-6.02 193.86-3.71L193.86-3.71L193.86-3.71Q188.54 1.28 180.48 1.28L180.48 1.28L180.48 1.28Q174.66 1.28 171.58-0.58L171.58-0.58L171.58-0.58Q168.51-2.43 168.51-5.98L168.51-5.98L168.51-5.98Q168.51-9.54 170.75-11.46L170.75-11.46L170.75-11.46Q173.44-6.91 179.14-6.91L179.14-6.91L179.14-6.91Q182.59-6.91 184.51-8.51L184.51-8.51L184.51-8.51Q186.43-10.11 186.43-13.18L186.43-13.18L186.43-13.18Q186.43-19.33 177.54-19.33L177.54-19.33L177.54-19.33Q174.14-19.33 171.97-19.07L171.97-19.07L177.98-42.24L193.02-42.24L193.02-42.24Q198.08-42.24 199.68-44.48L199.68-44.48L199.68-44.48Q201.34-43.01 201.34-39.74L201.34-39.74L201.34-39.74Q201.34-36.67 198.91-34.50L198.91-34.50L198.91-34.50Q196.48-32.32 193.02-32.32L193.02-32.32L182.08-32.32ZM215.04 0.83L210.94 0.70L210.94 0.70Q208.96 0.64 206.88 0.64L206.88 0.64L206.88 0.64Q204.80 0.64 202.75 0.90L202.75 0.90L202.75 0.90Q202.50-0.13 202.50-1.34L202.50-1.34L202.50-1.34Q202.50-3.90 203.94-5.44L203.94-5.44L203.94-5.44Q205.38-6.98 207.62-6.98L207.62-6.98L211.07-6.98L216.45-31.17L216.45-31.17Q214.46-29.18 210.37-29.18L210.37-29.18L210.37-29.18Q208.32-29.18 206.72-31.10L206.72-31.10L206.72-31.10Q205.12-32.90 204.86-35.46L204.86-35.46L204.86-35.46Q214.34-37.12 228.48-43.46L228.48-43.46L230.53-41.02L224.32-6.98L225.92-6.98L225.92-6.98Q229.76-6.98 231.74-7.68L231.74-7.68L231.74-7.68Q232.58-6.27 232.58-3.97L232.58-3.97L232.58-3.97Q232.58-1.66 230.88-0.29L230.88-0.29L230.88-0.29Q229.18 1.09 226.37 1.09L226.37 1.09L226.37 1.09Q220.67 1.09 215.04 0.83L215.04 0.83Z" fill="#ccc"></path></g></g><style>text {
  font-size: 64px;
  font-family: Arial Black;
  dominant-baseline: central;
  text-anchor: middle;
}</style></svg>